<svg xmlns:xlink="http://www.w3.org/1999/xlink" width="154" xmlns="http://www.w3.org/2000/svg" height="166" id="screenshot-d8545873-c26a-8046-8003-15839b59f469" viewBox="0 0 154 166" style="-webkit-print-color-adjust: exact;" fill="none" version="1.1"><g id="shape-d8545873-c26a-8046-8003-15839b59f469" rx="0" ry="0"><g id="shape-d8545873-c26a-8046-8003-15837e48ff24"><g class="fills" id="fills-d8545873-c26a-8046-8003-15837e48ff24"><path rx="0" ry="0" d="M27.690,30.155C27.690,30.155,46.474,6.195,76.389,7.021C106.303,7.847,123.000,27.676,123.000,27.676L20.000,150.000"/></g><g id="strokes-d8545873-c26a-8046-8003-15837e48ff24" class="strokes"><g class="stroke-shape"><path rx="0" ry="0" d="M27.690,30.155C27.690,30.155,46.474,6.195,76.389,7.021C106.303,7.847,123.000,27.676,123.000,27.676L20.000,150.000" style="fill: none; stroke-width: 2; stroke: rgb(52, 120, 125); stroke-opacity: 1;"/></g></g></g><g id="shape-d8545873-c26a-8046-8003-15837e48ff25"><g class="fills" id="fills-d8545873-c26a-8046-8003-15837e48ff25"><path rx="0" ry="0" d="M123.000,52.000L14.000,52.000"/></g><g id="strokes-d8545873-c26a-8046-8003-15837e48ff25" class="strokes"><g class="stroke-shape"><path rx="0" ry="0" d="M123.000,52.000L14.000,52.000" style="fill: none; stroke-width: 2; stroke: rgb(38, 89, 93); stroke-opacity: 0.7;"/></g></g></g><g id="shape-d8545873-c26a-8046-8003-15837e48ff26"><g class="fills" id="fills-d8545873-c26a-8046-8003-15837e48ff26"><path rx="0" ry="0" d="M123.000,51.000L123.000,150.000"/></g><g id="strokes-d8545873-c26a-8046-8003-15837e48ff26" class="strokes"><g class="stroke-shape"><path rx="0" ry="0" d="M123.000,51.000L123.000,150.000" style="fill: none; stroke-width: 2; stroke: rgb(38, 89, 93); stroke-opacity: 0.7;"/></g></g></g><g id="shape-d8545873-c26a-8046-8003-15837e48ff27" rx="0" ry="0"><g id="shape-d8545873-c26a-8046-8003-15837e48ff28" style="mix-blend-mode: multiply;"><g class="fills" id="fills-d8545873-c26a-8046-8003-15837e48ff28"><ellipse rx="69.49999999999994" ry="75" cx="76.49999999999994" cy="83" transform="matrix(1.000000, 0.000000, 0.000000, 1.000000, 0.000000, 0.000000)" style="opacity: 0.5; fill: rgb(250, 227, 149); fill-opacity: 1;"/></g></g><g id="shape-d8545873-c26a-8046-8003-15837e48ff29" style="mix-blend-mode: multiply;"><g class="fills" id="fills-d8545873-c26a-8046-8003-15837e48ff29"><ellipse rx="76.99999999999994" ry="83" cx="76.99999999999994" cy="83" transform="matrix(1.000000, 0.000000, 0.000000, 1.000000, 0.000000, 0.000000)" style="opacity: 0.5; fill: rgb(255, 255, 255); fill-opacity: 0.00626831;"/></g><g id="strokes-d8545873-c26a-8046-8003-15837e48ff29" class="strokes"><g class="inner-stroke-shape" transform="matrix(1.000000, 0.000000, 0.000000, 1.000000, 0.000000, 0.000000)"><defs><clipPath id="inner-stroke-rumext-id-7-d8545873-c26a-8046-8003-15837e48ff29-0"><use href="#stroke-shape-rumext-id-7-d8545873-c26a-8046-8003-15837e48ff29-0"/></clipPath><ellipse rx="76.99999999999994" ry="83" cx="76.99999999999994" cy="83" id="stroke-shape-rumext-id-7-d8545873-c26a-8046-8003-15837e48ff29-0" style="opacity: 0.5; fill: none; stroke-width: 4; stroke: rgb(38, 89, 93); stroke-opacity: 1;"/></defs><use href="#stroke-shape-rumext-id-7-d8545873-c26a-8046-8003-15837e48ff29-0" clip-path="url('#inner-stroke-rumext-id-7-d8545873-c26a-8046-8003-15837e48ff29-0')"/></g></g></g></g></g></svg>